<svg width="17" height="18" viewBox="0 0 17 18" fill="none" xmlns="http://www.w3.org/2000/svg">
<path d="M15.7351 2.17779H14.3438V1.24388C14.3438 0.556912 13.7774 0 13.0789 0H13.0283C12.3297 0 11.7634 0.556912 11.7634 1.24388V2.17779H5.23661V1.24388C5.23661 0.556912 4.67029 0 3.97173 0H3.92113C3.22256 0 2.65625 0.556912 2.65625 1.24388V2.17779H1.26488C0.566312 2.17779 0 2.7347 0 3.42168V16.7561C0 17.4432 0.566312 18 1.26488 18H15.7351C16.4337 18 17 17.4432 17 16.7561V3.42168C17 2.7347 16.4336 2.17779 15.7351 2.17779ZM14.875 16.0347H2.125V5.93432H14.875V16.0347Z" fill="#C3C2C9"/>
<path d="M3.85765 10.5076H6.05845C6.17021 10.5076 6.26083 10.4185 6.26083 10.3086V8.14433C6.26083 8.03442 6.17021 7.94531 6.05845 7.94531H3.85765C3.74589 7.94531 3.65527 8.03442 3.65527 8.14433V10.3086C3.65527 10.4185 3.74589 10.5076 3.85765 10.5076Z" fill="#C3C2C9"/>
<path d="M7.39965 10.5623H9.60044C9.7122 10.5623 9.80282 10.4732 9.80282 10.3633V8.19902C9.80282 8.08911 9.7122 8 9.60044 8H7.39965C7.28788 8 7.19727 8.08911 7.19727 8.19902V10.3633C7.19727 10.4732 7.28788 10.5623 7.39965 10.5623Z" fill="#C3C2C9"/>
<path d="M10.9416 10.5623H13.1424C13.2542 10.5623 13.3448 10.4732 13.3448 10.3633V8.19902C13.3448 8.08911 13.2542 8 13.1424 8H10.9416C10.8299 8 10.7393 8.08911 10.7393 8.19902V10.3633C10.7393 10.4732 10.8299 10.5623 10.9416 10.5623Z" fill="#C3C2C9"/>
<path d="M3.85765 13.9842H6.05845C6.17021 13.9842 6.26083 13.8951 6.26083 13.7852V11.6209C6.26083 11.511 6.17021 11.4219 6.05845 11.4219H3.85765C3.74589 11.4219 3.65527 11.511 3.65527 11.6209V13.7852C3.65527 13.8951 3.74589 13.9842 3.85765 13.9842Z" fill="#C3C2C9"/>
<path d="M7.39965 14.0467H9.60044C9.7122 14.0467 9.80282 13.9576 9.80282 13.8477V11.6834C9.80282 11.5735 9.7122 11.4844 9.60044 11.4844H7.39965C7.28788 11.4844 7.19727 11.5735 7.19727 11.6834V13.8477C7.19727 13.9576 7.28788 14.0467 7.39965 14.0467Z" fill="#C3C2C9"/>
<path d="M10.9416 14.0467H13.1424C13.2542 14.0467 13.3448 13.9576 13.3448 13.8477V11.6834C13.3448 11.5735 13.2542 11.4844 13.1424 11.4844H10.9416C10.8299 11.4844 10.7393 11.5735 10.7393 11.6834V13.8477C10.7393 13.9576 10.8299 14.0467 10.9416 14.0467Z" fill="#C3C2C9"/>
</svg>
