<svg width="15" height="16" viewBox="0 0 15 16" fill="none" xmlns="http://www.w3.org/2000/svg">
<path d="M2.35156 9.41406H0.46875C0.209875 9.41406 0 9.62394 0 9.88281V15.5312C0 15.7901 0.209875 16 0.46875 16H2.35156C2.61044 16 2.82031 15.7901 2.82031 15.5312V9.88281C2.82031 9.62394 2.61044 9.41406 2.35156 9.41406Z" fill="#B4B3BB"/>
<path d="M6.11719 7.53125H4.23438C3.9755 7.53125 3.76562 7.74113 3.76562 8V15.5312C3.76562 15.7901 3.9755 16 4.23438 16H6.11719C6.37606 16 6.58594 15.7901 6.58594 15.5312V8C6.58594 7.74113 6.37606 7.53125 6.11719 7.53125Z" fill="#B4B3BB"/>
<path d="M9.88281 5.64844H8C7.74113 5.64844 7.53125 5.85831 7.53125 6.11719V15.5312C7.53125 15.7901 7.74113 16 8 16H9.88281C10.1417 16 10.3516 15.7901 10.3516 15.5312V6.11719C10.3516 5.85831 10.1417 5.64844 9.88281 5.64844Z" fill="#B4B3BB"/>
<path d="M13.6484 3.76562H11.7656C11.5068 3.76562 11.2969 3.9755 11.2969 4.23438V15.5312C11.2969 15.7901 11.5068 16 11.7656 16H13.6484C13.9073 16 14.1172 15.7901 14.1172 15.5312V4.23438C14.1172 3.9755 13.9073 3.76562 13.6484 3.76562Z" fill="#B4B3BB"/>
<path d="M0.877031 6.586C0.902344 6.586 0.928031 6.58394 0.953844 6.57969C1.01416 6.56975 2.4555 6.32653 4.55316 5.49375C6.29819 4.80097 8.81456 3.56197 11.2968 1.49728V2.00187C11.2968 2.26075 11.5067 2.47062 11.7656 2.47062C12.0245 2.47062 12.2343 2.26075 12.2343 2.00187V0.46875C12.2343 0.209875 12.0245 0 11.7656 0H10.2324C9.97356 0 9.76369 0.209875 9.76369 0.46875C9.76369 0.727625 9.97356 0.9375 10.2324 0.9375H10.5014C8.187 2.81975 5.86125 3.96344 4.23447 4.61159C2.22403 5.41262 0.814969 5.65241 0.800969 5.65475C0.545719 5.697 0.372969 5.93809 0.415031 6.19344C0.452969 6.42306 0.651687 6.586 0.877031 6.586Z" fill="#B4B3BB"/>
</svg>
