<svg width="17" height="15" viewBox="0 0 17 15" fill="none" xmlns="http://www.w3.org/2000/svg">
<path d="M12.6135 3.05547H8.35056C8.1147 3.05547 7.92388 3.24629 7.92388 3.48215C7.92388 3.71801 8.1147 3.90883 8.35056 3.90883H12.6135C12.8494 3.90883 13.0402 3.71801 13.0402 3.48215C13.0402 3.24629 12.8494 3.05547 12.6135 3.05547Z" fill="#161718" stroke="#C4C3C9" stroke-width="0.1"/>
<path d="M4.86961 4.01774C5.16446 4.01774 5.40348 3.77872 5.40348 3.48387C5.40348 3.18902 5.16446 2.95 4.86961 2.95C4.57476 2.95 4.33574 3.18902 4.33574 3.48387C4.33574 3.77872 4.57476 4.01774 4.86961 4.01774Z" fill="#161718" stroke="#C4C3C9" stroke-width="0.1"/>
<path d="M12.6135 7.28203H8.35056C8.1147 7.28203 7.92388 7.47286 7.92388 7.70872C7.92388 7.94458 8.1147 8.13541 8.35056 8.13541H12.6135C12.8494 8.13541 13.0402 7.94458 13.0402 7.70872C13.0402 7.47286 12.8494 7.28203 12.6135 7.28203Z" fill="#161718" stroke="#C4C3C9" stroke-width="0.1"/>
<path d="M4.86961 8.24431C5.16446 8.24431 5.40348 8.00529 5.40348 7.71044C5.40348 7.41559 5.16446 7.17656 4.86961 7.17656C4.57476 7.17656 4.33574 7.41559 4.33574 7.71044C4.33574 8.00529 4.57476 8.24431 4.86961 8.24431Z" fill="#161718" stroke="#C4C3C9" stroke-width="0.1"/>
<path d="M13.8256 14.4667L13.8258 14.4667C15.0506 14.4636 16.05 13.4675 16.05 12.2393V11.6176C16.05 10.8787 15.6871 10.222 15.1313 9.81686C15.6871 9.41176 16.05 8.75501 16.05 8.01613V7.39445C16.05 6.65557 15.6871 5.99881 15.1313 5.59371C15.6871 5.18861 16.05 4.53186 16.05 3.79298V3.17436C16.05 1.94616 15.0506 0.95 13.8226 0.95H3.17742C1.94941 0.95 0.95 1.94616 0.95 3.17436V3.79604C0.95 4.53492 1.31291 5.19168 1.8687 5.59677C1.31291 6.00187 0.95 6.65863 0.95 7.39751V8.01919C0.95 8.75807 1.31291 9.41483 1.8687 9.81993C1.31291 10.225 0.95 10.8818 0.95 11.6207V12.2393C0.95 13.4674 1.94932 14.4667 3.17742 14.4667H13.8256ZM1.80031 3.79604V3.17436C1.80031 2.41505 2.41784 1.80031 3.17742 1.80031H13.8256C14.5852 1.80031 15.2028 2.41805 15.2028 3.17436V3.79604C15.2028 4.55548 14.5851 5.17315 13.8256 5.17315L3.17761 5.17315C3.17757 5.17315 3.17753 5.17315 3.17749 5.17315C2.41785 5.17013 1.80031 4.55227 1.80031 3.79604ZM1.80031 8.01613V7.39445C1.80031 6.635 2.41798 6.01733 3.17742 6.01733H13.8256C14.5851 6.01733 15.2028 6.635 15.2028 7.39445V8.01613C15.2028 8.77557 14.5851 9.39324 13.8256 9.39324H3.17742C2.41798 9.39324 1.80031 8.77557 1.80031 8.01613ZM1.80031 12.2393V11.6176C1.80031 10.8583 2.41784 10.2435 3.17742 10.2435H13.8256C14.5852 10.2435 15.2028 10.8613 15.2028 11.6176V12.2393C15.2028 12.9987 14.5851 13.6164 13.8256 13.6164H3.17761C2.41784 13.6134 1.80031 12.9985 1.80031 12.2393Z" fill="#161718" stroke="#C4C3C9" stroke-width="0.1"/>
<path d="M12.6135 11.5047H8.35056C8.1147 11.5047 7.92388 11.6955 7.92388 11.9314C7.92388 12.1672 8.1147 12.3581 8.35056 12.3581H12.6135C12.8494 12.3581 13.0402 12.1672 13.0402 11.9314C13.0402 11.6955 12.8494 11.5047 12.6135 11.5047Z" fill="#161718" stroke="#C4C3C9" stroke-width="0.1"/>
<path d="M4.86961 12.4631C5.16446 12.4631 5.40348 12.224 5.40348 11.9292C5.40348 11.6343 5.16446 11.3953 4.86961 11.3953C4.57476 11.3953 4.33574 11.6343 4.33574 11.9292C4.33574 12.224 4.57476 12.4631 4.86961 12.4631Z" fill="#161718" stroke="#C4C3C9" stroke-width="0.1"/>
</svg>
