<svg width="22" height="23" viewBox="0 0 22 23" fill="none" xmlns="http://www.w3.org/2000/svg">
<path d="M1.7 5.08203C1.7 3.25949 3.17746 1.78203 5 1.78203H6.15C6.61944 1.78203 7 1.40147 7 0.932031C7 0.462589 6.61944 0.0820312 6.15 0.0820312H5C2.23858 0.0820312 0 2.32061 0 5.08203V6.23203C0 6.70147 0.380558 7.08203 0.85 7.08203C1.31944 7.08203 1.7 6.70147 1.7 6.23203V5.08203Z" fill="#BFC0C4"/>
<path d="M1.7 17.082C1.7 18.9046 3.17746 20.382 5 20.382H6.15C6.61944 20.382 7 20.7626 7 21.232C7 21.7015 6.61944 22.082 6.15 22.082H5C2.23858 22.082 0 19.8435 0 17.082V15.932C0 15.4626 0.380558 15.082 0.85 15.082C1.31944 15.082 1.7 15.4626 1.7 15.932V17.082Z" fill="#BFC0C4"/>
<path d="M20.3 5.08203C20.3 3.25949 18.8225 1.78203 17 1.78203H15.85C15.3806 1.78203 15 1.40147 15 0.932031C15 0.462589 15.3806 0.0820312 15.85 0.0820312H17C19.7614 0.0820312 22 2.32061 22 5.08203V6.23203C22 6.70147 21.6194 7.08203 21.15 7.08203C20.6806 7.08203 20.3 6.70147 20.3 6.23203V5.08203Z" fill="#BFC0C4"/>
<path d="M20.3 17.082C20.3 18.9046 18.8225 20.382 17 20.382H15.85C15.3806 20.382 15 20.7626 15 21.232C15 21.7015 15.3806 22.082 15.85 22.082H17C19.7614 22.082 22 19.8435 22 17.082V15.932C22 15.4626 21.6194 15.082 21.15 15.082C20.6806 15.082 20.3 15.4626 20.3 15.932V17.082Z" fill="#BFC0C4"/>
<path d="M11.0002 9.08047C12.1043 9.08047 12.9994 8.18539 12.9994 7.08125C12.9994 5.97711 12.1043 5.08203 11.0002 5.08203C9.89606 5.08203 9.00098 5.97711 9.00098 7.08125C9.00098 8.18539 9.89606 9.08047 11.0002 9.08047Z" stroke="#BFC0C4" stroke-width="1.6" stroke-linecap="round" stroke-linejoin="round"/>
<path d="M13.3321 11.0781H8.66893C7.19492 11.0781 6 12.273 6 13.7471V14.4118C6 15.8858 7.19492 17.0807 8.66893 17.0807H13.3321C14.8061 17.0807 16.0011 15.8858 16.0011 14.4118V13.7471C16.0011 12.273 14.8061 11.0781 13.3321 11.0781Z" stroke="#BFC0C4" stroke-width="1.6" stroke-linecap="round" stroke-linejoin="round"/>
</svg>
