<svg xmlns="http://www.w3.org/2000/svg" xmlns:xlink="http://www.w3.org/1999/xlink" version="1.1" width="256" height="256" viewBox="0 0 256 256" xml:space="preserve">
<desc>Created with Fabric.js 1.7.22</desc>
<defs>
</defs>
<g transform="translate(128 128) scale(0.72 0.72)" style="">
	<g style="stroke: none; stroke-width: 0; stroke-dasharray: none; stroke-linecap: butt; stroke-linejoin: miter; stroke-miterlimit: 10; fill: none; fill-rule: nonzero; opacity: 1;" transform="translate(-175.05 -175.05000000000004) scale(3.89 3.89)" >
	<path d="M 87.25 87.433 H 68.673 c -1.519 0 -2.75 -1.231 -2.75 -2.75 v -9.048 c 0 -1.519 1.231 -2.75 2.75 -2.75 H 87.25 c 1.519 0 2.75 1.231 2.75 2.75 v 9.048 C 90 86.202 88.769 87.433 87.25 87.433 z" style="stroke: none; stroke-width: 1; stroke-dasharray: none; stroke-linecap: butt; stroke-linejoin: miter; stroke-miterlimit: 10; fill: rgb(0,0,0); fill-rule: nonzero; opacity: 1;" transform=" matrix(1 0 0 1 0 0) " stroke-linecap="round" />
	<path d="M 87.25 69.853 H 68.673 c -1.519 0 -2.75 -1.231 -2.75 -2.75 v -9.048 c 0 -1.519 1.231 -2.75 2.75 -2.75 H 87.25 c 1.519 0 2.75 1.231 2.75 2.75 v 9.048 C 90 68.622 88.769 69.853 87.25 69.853 z" style="stroke: none; stroke-width: 1; stroke-dasharray: none; stroke-linecap: butt; stroke-linejoin: miter; stroke-miterlimit: 10; fill: rgb(0,0,0); fill-rule: nonzero; opacity: 1;" transform=" matrix(1 0 0 1 0 0) " stroke-linecap="round" />
	<path d="M 87.25 52.274 H 68.673 c -1.519 0 -2.75 -1.231 -2.75 -2.75 v -9.048 c 0 -1.519 1.231 -2.75 2.75 -2.75 H 87.25 c 1.519 0 2.75 1.231 2.75 2.75 v 9.048 C 90 51.043 88.769 52.274 87.25 52.274 z" style="stroke: none; stroke-width: 1; stroke-dasharray: none; stroke-linecap: butt; stroke-linejoin: miter; stroke-miterlimit: 10; fill: rgb(0,0,0); fill-rule: nonzero; opacity: 1;" transform=" matrix(1 0 0 1 0 0) " stroke-linecap="round" />
	<path d="M 87.25 34.694 H 68.673 c -1.519 0 -2.75 -1.231 -2.75 -2.75 v -9.048 c 0 -1.519 1.231 -2.75 2.75 -2.75 H 87.25 c 1.519 0 2.75 1.231 2.75 2.75 v 9.048 C 90 33.463 88.769 34.694 87.25 34.694 z" style="stroke: none; stroke-width: 1; stroke-dasharray: none; stroke-linecap: butt; stroke-linejoin: miter; stroke-miterlimit: 10; fill: rgb(0,0,0); fill-rule: nonzero; opacity: 1;" transform=" matrix(1 0 0 1 0 0) " stroke-linecap="round" />
	<path d="M 87.25 17.115 H 68.673 c -1.519 0 -2.75 -1.231 -2.75 -2.75 V 5.317 c 0 -1.519 1.231 -2.75 2.75 -2.75 H 87.25 c 1.519 0 2.75 1.231 2.75 2.75 v 9.048 C 90 15.884 88.769 17.115 87.25 17.115 z" style="stroke: none; stroke-width: 1; stroke-dasharray: none; stroke-linecap: butt; stroke-linejoin: miter; stroke-miterlimit: 10; fill: rgb(0,0,0); fill-rule: nonzero; opacity: 1;" transform=" matrix(1 0 0 1 0 0) " stroke-linecap="round" />
	<path d="M 54.289 87.433 H 35.711 c -1.519 0 -2.75 -1.231 -2.75 -2.75 v -9.048 c 0 -1.519 1.231 -2.75 2.75 -2.75 h 18.577 c 1.519 0 2.75 1.231 2.75 2.75 v 9.048 C 57.039 86.202 55.807 87.433 54.289 87.433 z" style="stroke: none; stroke-width: 1; stroke-dasharray: none; stroke-linecap: butt; stroke-linejoin: miter; stroke-miterlimit: 10; fill: rgb(0,0,0); fill-rule: nonzero; opacity: 1;" transform=" matrix(1 0 0 1 0 0) " stroke-linecap="round" />
	<path d="M 54.289 69.853 H 35.711 c -1.519 0 -2.75 -1.231 -2.75 -2.75 v -9.048 c 0 -1.519 1.231 -2.75 2.75 -2.75 h 18.577 c 1.519 0 2.75 1.231 2.75 2.75 v 9.048 C 57.039 68.622 55.807 69.853 54.289 69.853 z" style="stroke: none; stroke-width: 1; stroke-dasharray: none; stroke-linecap: butt; stroke-linejoin: miter; stroke-miterlimit: 10; fill: rgb(0,0,0); fill-rule: nonzero; opacity: 1;" transform=" matrix(1 0 0 1 0 0) " stroke-linecap="round" />
	<path d="M 54.289 52.274 H 35.711 c -1.519 0 -2.75 -1.231 -2.75 -2.75 v -9.048 c 0 -1.519 1.231 -2.75 2.75 -2.75 h 18.577 c 1.519 0 2.75 1.231 2.75 2.75 v 9.048 C 57.039 51.043 55.807 52.274 54.289 52.274 z" style="stroke: none; stroke-width: 1; stroke-dasharray: none; stroke-linecap: butt; stroke-linejoin: miter; stroke-miterlimit: 10; fill: rgb(0,0,0); fill-rule: nonzero; opacity: 1;" transform=" matrix(1 0 0 1 0 0) " stroke-linecap="round" />
	<path d="M 21.327 87.433 H 2.75 c -1.519 0 -2.75 -1.231 -2.75 -2.75 v -9.048 c 0 -1.519 1.231 -2.75 2.75 -2.75 h 18.577 c 1.519 0 2.75 1.231 2.75 2.75 v 9.048 C 24.077 86.202 22.846 87.433 21.327 87.433 z" style="stroke: none; stroke-width: 1; stroke-dasharray: none; stroke-linecap: butt; stroke-linejoin: miter; stroke-miterlimit: 10; fill: rgb(0,0,0); fill-rule: nonzero; opacity: 1;" transform=" matrix(1 0 0 1 0 0) " stroke-linecap="round" />
</g>
</g>
</svg>