<svg xmlns="http://www.w3.org/2000/svg" xmlns:xlink="http://www.w3.org/1999/xlink" version="1.1" width="256" height="256" viewBox="0 0 256 256" xml:space="preserve">
<desc>Created with Fabric.js 1.7.22</desc>
<defs>
</defs>
<g transform="translate(128 128) scale(0.72 0.72)" style="">
	<g style="stroke: none; stroke-width: 0; stroke-dasharray: none; stroke-linecap: butt; stroke-linejoin: miter; stroke-miterlimit: 10; fill: none; fill-rule: nonzero; opacity: 1;" transform="translate(-175.05 -175.05000000000004) scale(3.89 3.89)" >
	<path d="M 82.766 82.304 H 19.408 c -3.989 0 -7.234 -3.245 -7.234 -7.234 V 31.596 c 0 -3.989 3.245 -7.234 7.234 -7.234 h 63.357 c 3.989 0 7.234 3.245 7.234 7.234 v 43.474 C 90 79.059 86.755 82.304 82.766 82.304 z M 19.408 26.361 c -2.886 0 -5.234 2.348 -5.234 5.234 v 43.474 c 0 2.887 2.348 5.234 5.234 5.234 h 63.357 c 2.887 0 5.234 -2.348 5.234 -5.234 V 31.596 c 0 -2.886 -2.348 -5.234 -5.234 -5.234 H 19.408 z" style="stroke: none; stroke-width: 1; stroke-dasharray: none; stroke-linecap: butt; stroke-linejoin: miter; stroke-miterlimit: 10; fill: rgb(0,0,0); fill-rule: nonzero; opacity: 1;" transform=" matrix(1 0 0 1 0 0) " stroke-linecap="round" />
	<path d="M 12.113 72.494 c -1.629 0 -3.199 -0.547 -4.493 -1.577 c -1.512 -1.203 -2.464 -2.924 -2.681 -4.845 L 0.046 22.875 c -0.449 -3.963 2.411 -7.554 6.375 -8.003 l 62.955 -7.129 c 1.922 -0.216 3.81 0.326 5.321 1.53 c 1.512 1.204 2.464 2.924 2.681 4.844 l 1.261 11.132 l -1.986 0.225 l -1.261 -11.132 c -0.158 -1.389 -0.847 -2.634 -1.94 -3.505 c -1.094 -0.872 -2.458 -1.263 -3.851 -1.107 L 6.646 16.859 c -2.868 0.325 -4.937 2.923 -4.612 5.791 l 4.893 43.197 c 0.157 1.39 0.846 2.634 1.94 3.505 c 1.094 0.872 2.463 1.266 3.85 1.107 l 0.114 -0.014 l 0.458 0.054 l -0.23 1.986 l -0.235 -0.027 C 12.586 72.482 12.349 72.494 12.113 72.494 z" style="stroke: none; stroke-width: 1; stroke-dasharray: none; stroke-linecap: butt; stroke-linejoin: miter; stroke-miterlimit: 10; fill: rgb(0,0,0); fill-rule: nonzero; opacity: 1;" transform=" matrix(1 0 0 1 0 0) " stroke-linecap="round" />
	<path d="M 13.613 66.48 l -0.879 -1.797 l 21.858 -10.687 c 2.3 -1.122 5.043 -0.529 6.671 1.445 l 3.064 3.714 c 1.018 1.233 2.742 1.624 4.191 0.949 l 40.059 -18.657 l 0.844 1.813 L 49.363 61.918 c -2.273 1.059 -4.979 0.448 -6.578 -1.488 l -3.064 -3.715 c -1.037 -1.259 -2.784 -1.636 -4.25 -0.921 L 13.613 66.48 z" style="stroke: none; stroke-width: 1; stroke-dasharray: none; stroke-linecap: butt; stroke-linejoin: miter; stroke-miterlimit: 10; fill: rgb(0,0,0); fill-rule: nonzero; opacity: 1;" transform=" matrix(1 0 0 1 0 0) " stroke-linecap="round" />
	<path d="M 49.985 50.386 c -4.217 0 -7.647 -3.431 -7.647 -7.646 c 0 -4.217 3.43 -7.647 7.647 -7.647 c 4.216 0 7.646 3.43 7.646 7.647 C 57.632 46.955 54.201 50.386 49.985 50.386 z M 49.985 37.092 c -3.113 0 -5.647 2.533 -5.647 5.647 c 0 3.113 2.534 5.646 5.647 5.646 s 5.646 -2.533 5.646 -5.646 C 55.632 39.625 53.099 37.092 49.985 37.092 z" style="stroke: none; stroke-width: 1; stroke-dasharray: none; stroke-linecap: butt; stroke-linejoin: miter; stroke-miterlimit: 10; fill: rgb(0,0,0); fill-rule: nonzero; opacity: 1;" transform=" matrix(1 0 0 1 0 0) " stroke-linecap="round" />
</g>
</g>
</svg>