<svg width="22" height="23" viewBox="0 0 22 23" fill="none" xmlns="http://www.w3.org/2000/svg">
<path d="M18.6056 3.45584C16.5734 1.42453 13.8742 0.303038 10.9992 0.303038C8.1243 0.303038 5.4251 1.42453 3.39283 3.45584C-0.527536 7.37432 -0.811425 13.6349 2.68085 17.8777C2.19869 18.864 1.63092 19.5216 0.986534 19.8369C0.594498 20.0306 0.373696 20.4539 0.436783 20.8863C0.504375 21.3232 0.837831 21.661 1.27493 21.7286C1.51376 21.7646 1.77061 21.7871 2.03647 21.7871C3.35678 21.7871 4.74467 21.3322 5.90276 20.535C7.46189 21.3728 9.21479 21.8141 10.9992 21.8141C13.8742 21.8141 16.5734 20.6972 18.6056 18.6659C20.6379 16.6345 21.7554 13.9321 21.7554 11.0631C21.7554 8.19405 20.6379 5.48714 18.6056 3.45584ZM17.745 17.8011C15.9425 19.6027 13.5452 20.5936 10.9992 20.5936C9.2959 20.5936 7.62411 20.1387 6.16862 19.2829C6.07399 19.2289 5.96584 19.1973 5.8622 19.1973C5.73152 19.1973 5.59634 19.2424 5.48819 19.3234C4.10931 20.3909 2.72141 20.5485 2.11308 20.562C2.83857 20.0216 3.4469 19.1838 3.9561 18.0173C4.05072 17.8011 4.01017 17.5489 3.85245 17.3687C0.517893 13.6034 0.693634 7.86526 4.2535 4.3071C6.05597 2.50549 8.45325 1.51461 10.9992 1.51461C13.5452 1.51461 15.9425 2.50549 17.745 4.3071C21.467 8.0319 21.467 14.0853 17.745 17.8011Z" fill="#BFC0C4"/>
<path d="M15.5057 7.50944H6.49334C6.15538 7.50944 5.88501 7.77968 5.88501 8.11748C5.88501 8.45528 6.15538 8.72552 6.49334 8.72552H15.5057C15.8436 8.72552 16.114 8.45528 16.114 8.11748C16.114 7.77968 15.8391 7.50944 15.5057 7.50944Z" fill="#BFC0C4"/>
<path d="M15.5057 10.4506H6.49334C6.15538 10.4506 5.88501 10.7208 5.88501 11.0586C5.88501 11.3964 6.15538 11.6667 6.49334 11.6667H15.5057C15.8436 11.6667 16.114 11.3964 16.114 11.0586C16.114 10.7208 15.8391 10.4506 15.5057 10.4506Z" fill="#BFC0C4"/>
<path d="M15.5057 13.3917H6.49334C6.15538 13.3917 5.88501 13.6619 5.88501 13.9997C5.88501 14.3375 6.15538 14.6077 6.49334 14.6077H15.5057C15.8436 14.6077 16.114 14.3375 16.114 13.9997C16.114 13.6619 15.8391 13.3917 15.5057 13.3917Z" fill="#BFC0C4"/>
<path fill-rule="evenodd" clip-rule="evenodd" d="M3.21989 3.28299C5.29788 1.206 8.05921 0.0585938 10.9992 0.0585938C13.9392 0.0585938 16.7006 1.206 18.7786 3.28299C20.8568 5.36028 22 8.12942 22 11.0631C22 13.9969 20.8568 16.7615 18.7786 18.8387C16.7004 20.9159 13.939 22.0586 10.9992 22.0586C9.2243 22.0586 7.47966 21.6315 5.91794 20.8196C4.74806 21.5909 3.36355 22.0316 2.03647 22.0316C1.75694 22.0316 1.48781 22.0079 1.23843 21.9703C0.694446 21.8862 0.278741 21.4643 0.195094 20.9237L0.194781 20.9216C0.116502 20.3851 0.390566 19.8586 0.878173 19.6178C1.42548 19.35 1.93812 18.7909 2.39155 17.9091C-1.07433 13.5721 -0.751642 7.25262 3.21989 3.28299ZM10.9992 0.547483C8.18938 0.547483 5.55233 1.64307 3.56576 3.62869C-0.265461 7.45807 -0.542686 13.5766 2.86971 17.7223L2.96962 17.8437L2.90059 17.985C2.40676 18.9952 1.80757 19.7072 1.09448 20.0562C0.798586 20.2026 0.631266 20.5223 0.678635 20.85C0.730503 21.1824 0.982115 21.4357 1.31168 21.4869C1.53987 21.5213 1.78436 21.5427 2.03647 21.5427C3.30298 21.5427 4.64311 21.1053 5.76404 20.3337L5.88703 20.249L6.01856 20.3197C7.54197 21.1383 9.25507 21.5697 10.9992 21.5697C13.8093 21.5697 16.4463 20.4784 18.4327 18.493C20.419 16.5076 21.5109 13.8674 21.5109 11.0631C21.5109 8.25868 20.419 5.61401 18.4327 3.62869C16.4461 1.64307 13.8091 0.547483 10.9992 0.547483ZM10.9992 1.75906C8.51804 1.75906 6.18299 2.72423 4.42643 4.47994C0.957914 7.9468 0.786785 13.5382 4.03558 17.2067L4.03651 17.2077C4.25523 17.4576 4.3136 17.8104 4.18015 18.1153C3.79643 18.9943 3.35224 19.703 2.83599 20.2447C3.50613 20.1286 4.42389 19.8382 5.33844 19.1302L5.34144 19.1279C5.49119 19.0156 5.6777 18.9529 5.8622 18.9529C6.01359 18.9529 6.16316 18.9982 6.28996 19.0707L6.29263 19.0722C7.71035 19.9058 9.3393 20.3491 10.9992 20.3491C13.4804 20.3491 15.8155 19.3839 17.572 17.6282C21.1983 14.0081 21.1988 8.10944 17.572 4.47994C15.8155 2.72423 13.4804 1.75906 10.9992 1.75906ZM4.08057 4.13425C5.92895 2.28676 8.38845 1.27017 10.9992 1.27017C13.61 1.27017 16.0695 2.28676 17.9179 4.13425C21.7352 7.95438 21.7356 14.1626 17.9178 17.974C17.9177 17.9741 17.9178 17.974 17.9178 17.974C16.0694 19.8215 13.61 20.838 10.9992 20.838C9.25308 20.838 7.53901 20.3719 6.04611 19.4945C6.0465 19.4947 6.04689 19.4949 6.04728 19.4951L6.16862 19.2829L6.04462 19.4936C6.04512 19.4939 6.04561 19.4942 6.04611 19.4945C5.98399 19.4592 5.91775 19.4418 5.8622 19.4418C5.78584 19.4418 5.70256 19.4688 5.63622 19.518C5.6368 19.5176 5.63737 19.5171 5.63794 19.5167L5.48819 19.3234L5.63493 19.519C5.63536 19.5187 5.63579 19.5183 5.63622 19.518C4.20276 20.627 2.75835 20.7922 2.11851 20.8064L1.35298 20.8234L1.96692 20.366C2.64741 19.8591 3.23334 19.0618 3.73194 17.9195C3.78766 17.7922 3.76518 17.6406 3.66886 17.5302C0.249017 13.668 0.429519 7.78355 4.08057 4.13425ZM5.64044 8.11748C5.64044 7.64467 6.02031 7.26499 6.49334 7.26499H15.5057C15.973 7.26499 16.3586 7.6435 16.3586 8.11748C16.3586 8.59028 15.9787 8.96996 15.5057 8.96996H6.49334C6.02031 8.96996 5.64044 8.59028 5.64044 8.11748ZM6.49334 7.75388C6.29044 7.75388 6.12957 7.91468 6.12957 8.11748C6.12957 8.32027 6.29044 8.48107 6.49334 8.48107H15.5057C15.7086 8.48107 15.8694 8.32027 15.8694 8.11748C15.8694 7.91586 15.7052 7.75388 15.5057 7.75388H6.49334ZM5.64044 11.0586C5.64044 10.5858 6.0203 10.2061 6.49334 10.2061H15.5057C15.973 10.2061 16.3586 10.5846 16.3586 11.0586C16.3586 11.5314 15.9787 11.9111 15.5057 11.9111H6.49334C6.02031 11.9111 5.64044 11.5314 5.64044 11.0586ZM6.49334 10.695C6.29045 10.695 6.12957 10.8558 6.12957 11.0586C6.12957 11.2614 6.29045 11.4222 6.49334 11.4222H15.5057C15.7086 11.4222 15.8694 11.2614 15.8694 11.0586C15.8694 10.857 15.7052 10.695 15.5057 10.695H6.49334ZM5.64044 13.9997C5.64044 13.5269 6.02031 13.1472 6.49334 13.1472H15.5057C15.973 13.1472 16.3586 13.5257 16.3586 13.9997C16.3586 14.4725 15.9787 14.8522 15.5057 14.8522H6.49334C6.02031 14.8522 5.64044 14.4725 5.64044 13.9997ZM6.49334 13.6361C6.29044 13.6361 6.12957 13.7969 6.12957 13.9997C6.12957 14.2025 6.29044 14.3633 6.49334 14.3633H15.5057C15.7086 14.3633 15.8694 14.2025 15.8694 13.9997C15.8694 13.7981 15.7052 13.6361 15.5057 13.6361H6.49334Z" fill="#BFC0C4"/>
</svg>
