<svg xmlns="http://www.w3.org/2000/svg" xmlns:xlink="http://www.w3.org/1999/xlink" version="1.1" width="256" height="256" viewBox="0 0 256 256" xml:space="preserve">
<desc>Created with Fabric.js 1.7.22</desc>
<defs>
</defs>
<g transform="translate(128 128) scale(0.72 0.72)" style="">
	<g style="stroke: none; stroke-width: 0; stroke-dasharray: none; stroke-linecap: butt; stroke-linejoin: miter; stroke-miterlimit: 10; fill: none; fill-rule: nonzero; opacity: 1;" transform="translate(-175.05 -175.05000000000004) scale(3.89 3.89)" >
	<path d="M 45 81.299 c -11.787 0 -21.375 -9.589 -21.375 -21.375 c 0 -0.553 0.448 -1 1 -1 s 1 0.447 1 1 c 0 10.684 8.692 19.375 19.375 19.375 c 0.552 0 1 0.447 1 1 S 45.552 81.299 45 81.299 z" style="stroke: none; stroke-width: 1; stroke-dasharray: none; stroke-linecap: butt; stroke-linejoin: miter; stroke-miterlimit: 10; fill: rgb(0,0,0); fill-rule: nonzero; opacity: 1;" transform=" matrix(1 0 0 1 0 0) " stroke-linecap="round" />
	<path d="M 65.375 60.924 c -0.553 0 -1 -0.447 -1 -1 c 0 -10.684 -8.691 -19.375 -19.375 -19.375 c -0.552 0 -1 -0.448 -1 -1 s 0.448 -1 1 -1 c 11.786 0 21.375 9.589 21.375 21.375 C 66.375 60.477 65.928 60.924 65.375 60.924 z" style="stroke: none; stroke-width: 1; stroke-dasharray: none; stroke-linecap: butt; stroke-linejoin: miter; stroke-miterlimit: 10; fill: rgb(0,0,0); fill-rule: nonzero; opacity: 1;" transform=" matrix(1 0 0 1 0 0) " stroke-linecap="round" />
	<path d="M 65.271 37.727 l 7.611 -25.866 c 0.125 -0.424 -0.044 -0.88 -0.415 -1.121 l -16.3 -10.579 c -0.021 -0.013 -0.047 -0.012 -0.068 -0.024 c -0.082 -0.045 -0.169 -0.073 -0.263 -0.094 c -0.052 -0.012 -0.1 -0.028 -0.153 -0.031 C 55.662 0.011 55.644 0 55.623 0 H 34.378 c -0.022 0 -0.04 0.011 -0.061 0.012 c -0.052 0.003 -0.099 0.019 -0.15 0.03 c -0.094 0.021 -0.182 0.048 -0.264 0.094 c -0.022 0.012 -0.048 0.011 -0.069 0.025 l -16.3 10.579 c -0.371 0.241 -0.54 0.697 -0.415 1.121 l 7.611 25.866 c -6.021 5.503 -9.805 13.416 -9.805 22.197 C 14.924 76.508 28.416 90 45 90 s 30.076 -13.492 30.076 -30.076 C 75.076 51.143 71.292 43.23 65.271 37.727 z M 63.602 36.317 c -4.302 -3.397 -9.548 -5.648 -15.277 -6.281 l 7.887 -27.462 l 14.541 9.438 L 63.602 36.317 z M 51.123 13.047 H 38.878 L 35.705 2 h 18.59 L 51.123 13.047 z M 50.549 15.047 l -4.26 14.833 c -0.428 -0.018 -0.857 -0.033 -1.289 -0.033 c -0.432 0 -0.861 0.015 -1.289 0.033 l -4.26 -14.833 H 50.549 z M 19.248 12.012 L 33.79 2.574 l 7.886 27.462 c -5.729 0.633 -10.974 2.883 -15.277 6.28 L 19.248 12.012 z M 45 88 c -15.481 0 -28.076 -12.595 -28.076 -28.076 c 0 -15.481 12.595 -28.076 28.076 -28.076 s 28.076 12.595 28.076 28.076 C 73.076 75.405 60.481 88 45 88 z" style="stroke: none; stroke-width: 1; stroke-dasharray: none; stroke-linecap: butt; stroke-linejoin: miter; stroke-miterlimit: 10; fill: rgb(0,0,0); fill-rule: nonzero; opacity: 1;" transform=" matrix(1 0 0 1 0 0) " stroke-linecap="round" />
	<path d="M 59.889 59.931 l -0.141 -0.303 c -0.136 -0.291 -0.317 -0.546 -0.533 -0.761 c 0.642 -0.769 0.822 -1.871 0.372 -2.838 l -0.141 -0.299 c -0.267 -0.572 -0.719 -1.022 -1.286 -1.287 c 0.128 -0.57 0.064 -1.163 -0.186 -1.701 l -0.141 -0.299 c -0.281 -0.604 -0.769 -1.072 -1.381 -1.329 c 0.097 -0.525 0.037 -1.085 -0.205 -1.606 l -0.141 -0.299 c -0.3 -0.645 -0.834 -1.133 -1.504 -1.377 c -0.672 -0.244 -1.395 -0.213 -2.038 0.089 l -5.308 2.484 c -1.4 -3.739 -2.788 -5.646 -4.444 -6.134 c -1.068 -0.315 -2.197 -0.018 -3.349 0.885 l -0.595 0.466 l 0.287 0.7 c 1.19 2.908 1.274 7.094 0.361 8.879 c -0.2 -0.178 -0.441 -0.313 -0.707 -0.393 c -0.477 -0.144 -0.993 -0.104 -1.455 0.112 l -6.316 2.945 c -0.995 0.464 -1.448 1.607 -1.009 2.551 l 5.521 11.839 c 0.314 0.671 0.998 1.062 1.725 1.062 c 0.292 0 0.591 -0.063 0.876 -0.196 l 6.317 -2.945 c 0.462 -0.216 0.824 -0.586 1.021 -1.043 c 0.078 -0.183 0.126 -0.374 0.146 -0.565 c 1.511 0.011 3.169 -0.49 4.459 -1.132 l 8.503 -3.966 c 0.645 -0.3 1.133 -0.834 1.377 -1.504 C 60.219 61.296 60.188 60.572 59.889 59.931 z M 58.096 61.282 c -0.062 0.168 -0.183 0.301 -0.342 0.375 l -8.526 3.977 c -1.844 0.917 -3.79 1.111 -4.606 0.771 l -2.385 -1 l 1.38 2.962 l -6.305 2.931 l -5.42 -11.622 l 6.305 -2.932 l 0.301 0.645 l 2.672 5.731 c 0.169 0.363 0.53 0.577 0.907 0.577 c 0.142 0 0.286 -0.03 0.422 -0.094 c 0.5 -0.233 0.717 -0.828 0.483 -1.329 l -2.409 -5.165 c 2.041 -2.123 1.867 -7.314 0.719 -10.769 c 0.466 -0.24 0.759 -0.208 0.955 -0.15 c 0.738 0.218 1.944 1.42 3.494 5.913 l 0.362 1.051 l 7.308 -3.421 c 0.159 -0.075 0.34 -0.082 0.508 -0.021 c 0.167 0.061 0.301 0.182 0.375 0.343 l 0.141 0.299 c 0.154 0.333 0.011 0.728 -0.321 0.883 c 0 0 -0.001 0 -0.001 0 h -0.001 l 0 0 l -2.504 1.168 c -0.5 0.233 -0.717 0.828 -0.483 1.329 c 0.17 0.363 0.53 0.577 0.907 0.577 c 0.142 0 0.285 -0.03 0.422 -0.094 l 2.505 -1.168 c 0 0 0 0 0.001 0 l 0.178 -0.084 c 0.334 -0.152 0.729 -0.011 0.884 0.323 l 0.141 0.3 c 0.074 0.159 0.081 0.339 0.021 0.507 c -0.06 0.163 -0.176 0.294 -0.328 0.369 l -0.014 0.007 c 0 0 0 0 -0.001 0 l -2.685 1.252 c -0.5 0.233 -0.717 0.828 -0.483 1.329 c 0.17 0.363 0.53 0.577 0.907 0.577 c 0.142 0 0.285 -0.03 0.422 -0.094 l 2.685 -1.252 c 0.001 0 0.001 -0.001 0.002 -0.001 c 0.014 -0.006 0.027 -0.013 0.04 -0.019 l 0.026 -0.012 c 0.328 -0.151 0.727 -0.009 0.88 0.324 l 0.141 0.3 c 0.152 0.326 0.005 0.73 -0.321 0.883 l -1.244 0.58 c 0 0 -0.001 0.001 -0.002 0.001 l -1.504 0.701 c -0.5 0.233 -0.717 0.828 -0.483 1.329 c 0.17 0.363 0.53 0.577 0.907 0.577 c 0.142 0 0.285 -0.03 0.422 -0.094 l 1.504 -0.701 l 0.002 -0.001 c 0.157 -0.073 0.336 -0.081 0.505 -0.02 c 0.168 0.062 0.302 0.183 0.375 0.34 l 0.141 0.302 C 58.149 60.934 58.156 61.114 58.096 61.282 z" style="stroke: none; stroke-width: 1; stroke-dasharray: none; stroke-linecap: butt; stroke-linejoin: miter; stroke-miterlimit: 10; fill: rgb(0,0,0); fill-rule: nonzero; opacity: 1;" transform=" matrix(1 0 0 1 0 0) " stroke-linecap="round" />
</g>
</g>
</svg>