<svg width="17" height="17" viewBox="0 0 17 17" fill="none" xmlns="http://www.w3.org/2000/svg">
<path d="M14.8494 0.95H2.15062C1.48807 0.95 0.95 1.48807 0.95 2.15062V12.0099C0.95 12.6724 1.48807 13.2105 2.15062 13.2105H6.43081C6.67759 13.2105 6.87724 13.0109 6.87724 12.7641C6.87724 12.5173 6.67759 12.3176 6.43081 12.3176H2.15062C1.97841 12.3176 1.83964 12.1789 1.83964 12.0067V4.68236H15.1604V12.0099C15.1604 12.1821 15.0216 12.3209 14.8494 12.3209H10.6208C10.374 12.3209 10.1743 12.5205 10.1743 12.7673C10.1743 13.0141 10.374 13.2137 10.6208 13.2137H14.8494C15.5119 13.2137 16.05 12.6757 16.05 12.0131V2.15062C16.05 1.49139 15.512 0.95 14.8494 0.95ZM1.83964 3.79272V2.15062C1.83964 1.97841 1.97841 1.83964 2.15062 1.83964H14.8494C15.0216 1.83964 15.1604 1.97841 15.1604 2.15062V3.79272H1.83964Z" fill="#C4C3C9" stroke="#C4C3C9" stroke-width="0.1"/>
<path d="M2.49879 2.50272L2.49879 2.50272L2.4984 2.50311C2.41494 2.58657 2.36772 2.69918 2.36772 2.81887C2.36772 2.93512 2.41479 3.05102 2.4984 3.13463C2.58186 3.21809 2.69447 3.2653 2.81416 3.2653C2.9304 3.2653 3.0463 3.21824 3.12992 3.13463C3.21338 3.05117 3.26059 2.93855 3.26059 2.81887C3.26059 2.70262 3.21353 2.58672 3.12992 2.50311L3.12992 2.50311L3.12953 2.50272C2.96183 2.33868 2.66648 2.33868 2.49879 2.50272Z" fill="#C4C3C9" stroke="#C4C3C9" stroke-width="0.1"/>
<path d="M3.92042 2.50272L3.92042 2.50272L3.92003 2.50311C3.83657 2.58657 3.78936 2.69918 3.78936 2.81887C3.78936 2.93512 3.83642 3.05102 3.92003 3.13463C4.00349 3.21809 4.1161 3.2653 4.23579 3.2653C4.35203 3.2653 4.46793 3.21824 4.55155 3.13463C4.63501 3.05117 4.68222 2.93855 4.68222 2.81887C4.68222 2.70262 4.63516 2.58672 4.55155 2.50311L4.55155 2.50311L4.55116 2.50272C4.38346 2.33868 4.08811 2.33868 3.92042 2.50272Z" fill="#C4C3C9" stroke="#C4C3C9" stroke-width="0.1"/>
<path d="M5.3401 2.50272L5.3401 2.50272L5.33971 2.50311C5.25625 2.58657 5.20903 2.69918 5.20903 2.81887C5.20903 2.93512 5.25609 3.05102 5.33971 3.13463C5.42317 3.21809 5.53578 3.2653 5.65547 3.2653C5.77171 3.2653 5.88761 3.21824 5.97123 3.13463C6.05469 3.05117 6.1019 2.93855 6.1019 2.81887C6.1019 2.70262 6.05484 2.58672 5.97123 2.50311L5.97123 2.50311L5.97084 2.50272C5.80314 2.33868 5.50779 2.33868 5.3401 2.50272Z" fill="#C4C3C9" stroke="#C4C3C9" stroke-width="0.1"/>
<path d="M10.4632 10.0775L8.81019 8.42442C8.72673 8.34096 8.61411 8.29375 8.49443 8.29375C8.37474 8.29375 8.26213 8.34096 8.17867 8.42442L6.52525 10.0778C6.35102 10.2521 6.35102 10.5319 6.52525 10.7061C6.69949 10.8804 6.97932 10.8804 7.15355 10.7061L8.048 9.81169V16.3852C8.048 16.632 8.24765 16.8317 8.49443 16.8317C8.74121 16.8317 8.94086 16.632 8.94086 16.3852V9.81169L9.83531 10.7061C10.0095 10.8804 10.2894 10.8804 10.4636 10.7061C10.6376 10.5322 10.6382 10.249 10.4634 10.0777C10.4634 10.0776 10.4633 10.0775 10.4632 10.0775Z" fill="#C4C3C9" stroke="#C4C3C9" stroke-width="0.1"/>
<path d="M12.0606 7.53037L12.0614 7.53036C12.3072 7.52675 12.5071 7.32789 12.5071 7.08393C12.5071 6.83715 12.3074 6.6375 12.0606 6.6375H4.93452C4.68774 6.6375 4.48809 6.83715 4.48809 7.08393C4.48809 7.33071 4.68774 7.53037 4.93452 7.53037L12.0606 7.53037Z" fill="#C4C3C9" stroke="#C4C3C9" stroke-width="0.1"/>
</svg>
