<svg xmlns="http://www.w3.org/2000/svg" xmlns:xlink="http://www.w3.org/1999/xlink" version="1.1" width="256" height="256" viewBox="0 0 256 256" xml:space="preserve">
<desc>Created with Fabric.js 1.7.22</desc>
<defs>
</defs>
<g transform="translate(128 128) scale(0.72 0.72)" style="">
	<g style="stroke: none; stroke-width: 0; stroke-dasharray: none; stroke-linecap: butt; stroke-linejoin: miter; stroke-miterlimit: 10; fill: none; fill-rule: nonzero; opacity: 1;" transform="translate(-175.05 -175.05000000000004) scale(3.89 3.89)" >
	<path d="M 28.788 36.932 H 17.875 l -1.002 -1.319 c -0.836 -1.103 -2.054 -1.801 -3.428 -1.968 c -1.378 -0.164 -2.724 0.221 -3.801 1.092 l -5.211 4.216 H 2.384 C 1.069 38.952 0 40.021 0 41.335 v 10.578 c 0 1.314 1.069 2.384 2.384 2.384 h 1.943 c 1.713 1.354 3.835 2.096 6.017 2.096 h 7.869 c 1.699 0 3.082 -1.382 3.082 -3.081 v -0.202 c 0 -0.417 -0.083 -0.815 -0.234 -1.179 c 1.33 -0.341 2.315 -1.55 2.315 -2.984 v -0.202 c 0 -0.489 -0.115 -0.952 -0.318 -1.363 c 1.059 -0.488 1.795 -1.56 1.795 -2.8 v -0.202 c 0 -0.38 -0.069 -0.745 -0.196 -1.082 h 4.131 c 1.699 0 3.082 -1.382 3.082 -3.082 v -0.202 C 31.87 38.314 30.487 36.932 28.788 36.932 z M 29.87 40.215 c 0 0.596 -0.485 1.082 -1.082 1.082 h -7.017 c 0 0 0 0 -0.001 0 l -5.836 0.004 c -0.552 0 -1 0.448 -0.999 1.001 c 0 0.552 0.448 0.999 1 0.999 c 0 0 0 0 0.001 0 l 5.835 -0.004 c 0.596 0 1.082 0.485 1.082 1.082 v 0.202 c 0 0.596 -0.485 1.082 -1.082 1.082 h -1.477 c 0 0 -0.001 0 -0.001 0 l -4.359 0.005 c -0.552 0 -1 0.449 -0.999 1.001 s 0.448 0.999 1 0.999 c 0 0 0.001 0 0.001 0 l 4.358 -0.005 c 0.596 0 1.082 0.485 1.082 1.082 v 0.202 c 0 0.596 -0.485 1.081 -1.082 1.081 h -1.891 c -0.015 -0.001 -0.028 -0.009 -0.044 -0.009 c 0 0 -0.001 0 -0.002 0 l -2.425 0.005 c -0.552 0.001 -0.999 0.45 -0.998 1.002 s 0.449 0.998 1 0.998 c 0 0 0.001 0 0.002 0 l 2.234 -0.005 c 0.015 0.001 0.027 0.008 0.042 0.008 c 0.597 0 1.082 0.485 1.082 1.082 v 0.202 c 0 0.596 -0.485 1.081 -1.082 1.081 h -7.869 c -1.831 0 -3.61 -0.659 -5.009 -1.855 c -0.181 -0.155 -0.412 -0.24 -0.65 -0.24 H 2.384 C 2.172 52.297 2 52.125 2 51.913 V 41.335 c 0 -0.211 0.172 -0.383 0.384 -0.383 h 2.402 c 0.229 0 0.451 -0.079 0.629 -0.223 l 5.486 -4.438 c 0.652 -0.526 1.47 -0.764 2.302 -0.661 c 0.832 0.101 1.569 0.524 2.076 1.191 l 0.083 0.11 h -2.289 c -0.552 0 -1 0.448 -1 1 s 0.448 1 1 1 h 4.293 c 0.006 0 0.014 0 0.021 0 h 11.399 c 0.597 0 1.082 0.485 1.082 1.082 V 40.215 z" style="stroke: none; stroke-width: 1; stroke-dasharray: none; stroke-linecap: butt; stroke-linejoin: miter; stroke-miterlimit: 10; fill: rgb(0,0,0); fill-rule: nonzero; opacity: 1;" transform=" matrix(1 0 0 1 0 0) " stroke-linecap="round" />
	<path d="M 87.234 63.745 H 24.124 c -1.525 0 -2.765 -1.24 -2.765 -2.766 v -2.901 c 0 -0.553 0.448 -1 1 -1 s 1 0.447 1 1 v 2.901 c 0 0.422 0.343 0.766 0.765 0.766 h 63.111 c 0.422 0 0.766 -0.344 0.766 -0.766 V 29.02 c 0 -0.422 -0.344 -0.765 -0.766 -0.765 H 24.124 c -0.422 0 -0.765 0.343 -0.765 0.765 v 2.902 c 0 0.552 -0.448 1 -1 1 s -1 -0.448 -1 -1 V 29.02 c 0 -1.525 1.24 -2.765 2.765 -2.765 h 63.111 c 1.525 0 2.766 1.24 2.766 2.765 v 31.959 C 90 62.505 88.76 63.745 87.234 63.745 z" style="stroke: none; stroke-width: 1; stroke-dasharray: none; stroke-linecap: butt; stroke-linejoin: miter; stroke-miterlimit: 10; fill: rgb(0,0,0); fill-rule: nonzero; opacity: 1;" transform=" matrix(1 0 0 1 0 0) " stroke-linecap="round" />
	<path d="M 49.553 41.109 v -2.286 c 0 -2.697 -2.194 -4.891 -4.891 -4.891 h -7.887 c -0.552 0 -1 0.448 -1 1 V 45 v 10.068 c 0 0.553 0.448 1 1 1 h 7.887 c 2.696 0 4.891 -2.194 4.891 -4.892 v -2.286 c 0 -1.593 -0.777 -2.997 -1.96 -3.891 C 48.775 44.106 49.553 42.702 49.553 41.109 z M 47.553 48.891 v 2.286 c 0 1.595 -1.297 2.892 -2.891 2.892 h -6.887 V 46 h 6.887 C 46.256 46 47.553 47.297 47.553 48.891 z M 37.775 44 v -8.068 h 6.887 c 1.594 0 2.891 1.297 2.891 2.891 v 2.286 c 0 1.594 -1.297 2.891 -2.891 2.891 H 37.775 z" style="stroke: none; stroke-width: 1; stroke-dasharray: none; stroke-linecap: butt; stroke-linejoin: miter; stroke-miterlimit: 10; fill: rgb(0,0,0); fill-rule: nonzero; opacity: 1;" transform=" matrix(1 0 0 1 0 0) " stroke-linecap="round" />
	<path d="M 59.292 56.068 c -3.799 0 -6.889 -2.85 -6.889 -6.353 V 34.932 c 0 -0.552 0.447 -1 1 -1 s 1 0.448 1 1 v 14.784 c 0 2.4 2.193 4.353 4.889 4.353 c 2.696 0 4.89 -1.952 4.89 -4.353 V 34.932 c 0 -0.552 0.447 -1 1 -1 s 1 0.448 1 1 v 14.784 C 66.182 53.219 63.091 56.068 59.292 56.068 z" style="stroke: none; stroke-width: 1; stroke-dasharray: none; stroke-linecap: butt; stroke-linejoin: miter; stroke-miterlimit: 10; fill: rgb(0,0,0); fill-rule: nonzero; opacity: 1;" transform=" matrix(1 0 0 1 0 0) " stroke-linecap="round" />
	<path d="M 82.339 34.083 c -0.468 -0.293 -1.085 -0.15 -1.378 0.318 l -5.041 8.073 l -5.04 -8.073 c -0.293 -0.468 -0.911 -0.611 -1.378 -0.318 c -0.469 0.292 -0.611 0.909 -0.319 1.378 l 5.737 9.189 v 10.418 c 0 0.553 0.447 1 1 1 s 1 -0.447 1 -1 V 44.651 l 5.738 -9.19 C 82.95 34.993 82.808 34.376 82.339 34.083 z" style="stroke: none; stroke-width: 1; stroke-dasharray: none; stroke-linecap: butt; stroke-linejoin: miter; stroke-miterlimit: 10; fill: rgb(0,0,0); fill-rule: nonzero; opacity: 1;" transform=" matrix(1 0 0 1 0 0) " stroke-linecap="round" />
</g>
</g>
</svg>