<svg width="20" height="20" viewBox="0 0 20 20" fill="none" xmlns="http://www.w3.org/2000/svg">
<path d="M18.0788 8.11051L16.8153 7.89618C16.6837 7.47128 16.5145 7.06142 16.3077 6.67036L17.0522 5.62879C17.3681 5.18508 17.3192 4.5797 16.9319 4.19616L15.8114 3.07562C15.6008 2.86505 15.3225 2.74849 15.0255 2.74849C14.7924 2.74849 14.5705 2.81993 14.3825 2.9553L13.3372 3.69981C12.9311 3.48548 12.5062 3.30875 12.0662 3.17715L11.8557 1.92877C11.7654 1.39106 11.3029 1 10.7577 1H9.17464C8.62941 1 8.16691 1.39106 8.07667 1.92877L7.85858 3.20723C7.43743 3.33883 7.02757 3.5118 6.63652 3.72237L5.60247 2.97786C5.41446 2.84249 5.18884 2.77105 4.95571 2.77105C4.65866 2.77105 4.37665 2.88761 4.16984 3.09818L3.04554 4.21872C2.662 4.60226 2.60936 5.20765 2.92521 5.65135L3.67725 6.70796C3.47044 7.10278 3.30499 7.51264 3.17715 7.93754L1.92877 8.14811C1.39106 8.23835 1 8.70086 1 9.24608V10.8291C1 11.3743 1.39106 11.8369 1.92877 11.9271L3.20723 12.1452C3.33883 12.5663 3.5118 12.9762 3.72237 13.3672L2.98162 14.3975C2.66576 14.8412 2.71464 15.4466 3.10194 15.8302L4.22248 16.9507C4.43305 17.1613 4.7113 17.2778 5.00836 17.2778C5.24149 17.2778 5.46334 17.2064 5.65135 17.071L6.70796 16.319C7.08774 16.5183 7.48632 16.68 7.89618 16.8078L8.10675 18.0712C8.19699 18.6089 8.65949 19 9.20472 19H10.7915C11.3367 19 11.7992 18.6089 11.8895 18.0712L12.1038 16.8078C12.5287 16.6762 12.9386 16.507 13.3296 16.3002L14.3712 17.0447C14.5592 17.1801 14.7848 17.2515 15.018 17.2515C15.315 17.2515 15.5933 17.1349 15.8038 16.9244L16.9244 15.8038C17.3079 15.4203 17.3606 14.8149 17.0447 14.3712L16.3002 13.3259C16.507 12.9311 16.68 12.5212 16.8078 12.1001L18.0712 11.8895C18.6089 11.7992 19 11.3367 19 10.7915V9.20848C19.0075 8.66325 18.6165 8.20075 18.0788 8.11051ZM17.9923 10.7915C17.9923 10.8404 17.9584 10.8818 17.9095 10.8893L16.3303 11.1525C16.131 11.1863 15.9731 11.333 15.9242 11.5248C15.7813 12.0775 15.5632 12.6077 15.2699 13.1003C15.1684 13.2732 15.1759 13.4876 15.2925 13.653L16.2212 14.9616C16.2475 14.9992 16.2438 15.0556 16.2099 15.0894L15.0894 16.2099C15.0631 16.2363 15.0368 16.24 15.018 16.24C14.9954 16.24 14.9766 16.2325 14.9616 16.2212L13.6568 15.2925C13.4951 15.1759 13.277 15.1684 13.104 15.2699C12.6114 15.5632 12.0813 15.7813 11.5285 15.9242C11.333 15.9731 11.1863 16.1347 11.1563 16.3303L10.8893 17.9095C10.8818 17.9584 10.8404 17.9923 10.7915 17.9923H9.20848C9.1596 17.9923 9.11824 17.9584 9.11072 17.9095L8.8475 16.3303C8.81366 16.131 8.66702 15.9731 8.47525 15.9242C7.93754 15.785 7.41863 15.5707 6.93357 15.2925C6.85461 15.2473 6.76436 15.2248 6.67788 15.2248C6.57635 15.2248 6.47107 15.2549 6.38458 15.3188L5.06852 16.2551C5.04972 16.2663 5.03092 16.2739 5.01212 16.2739C4.99708 16.2739 4.96699 16.2701 4.94067 16.2438L3.82014 15.1233C3.7863 15.0894 3.78254 15.0368 3.80886 14.9954L4.73386 13.6981C4.85043 13.5327 4.85795 13.3146 4.75642 13.1416C4.46313 12.6528 4.23752 12.1226 4.09463 11.5699C4.04199 11.3781 3.88406 11.2315 3.68853 11.1976L2.09797 10.9269C2.04909 10.9194 2.01525 10.878 2.01525 10.8291V9.24608C2.01525 9.1972 2.04909 9.15584 2.09797 9.14832L3.66597 8.88511C3.86526 8.85126 4.02695 8.70462 4.07583 8.50909C4.21496 7.95634 4.42929 7.42239 4.71882 6.92981C4.82035 6.75684 4.80907 6.54251 4.6925 6.38082L3.75621 5.06476C3.72989 5.02716 3.73365 4.97075 3.7675 4.93691L4.88803 3.81638C4.91435 3.79006 4.94067 3.7863 4.95947 3.7863C4.98203 3.7863 5.00084 3.79382 5.01588 3.8051L6.31314 4.7301C6.47859 4.84667 6.69668 4.85419 6.86965 4.75266C7.35847 4.45937 7.88866 4.23376 8.4414 4.09087C8.63317 4.03823 8.77982 3.8803 8.81366 3.68477L9.0844 2.09421C9.09192 2.04533 9.13328 2.01149 9.18216 2.01149H10.7652C10.8141 2.01149 10.8554 2.04533 10.863 2.09421L11.1262 3.66221C11.16 3.8615 11.3067 4.02319 11.5022 4.07207C12.07 4.21496 12.6114 4.43681 13.1153 4.73386C13.2883 4.83539 13.5026 4.82787 13.6681 4.7113L14.9653 3.77878C14.9841 3.7675 15.0029 3.75998 15.0217 3.75998C15.0368 3.75998 15.0668 3.76374 15.0932 3.79006L16.2137 4.91059C16.2475 4.94443 16.2513 4.99708 16.225 5.03844L15.2962 6.34322C15.1797 6.50491 15.1721 6.723 15.2737 6.89597C15.567 7.38855 15.785 7.91874 15.9279 8.47149C15.9768 8.66702 16.1385 8.81366 16.334 8.84374L17.9133 9.11072C17.9622 9.11824 17.996 9.1596 17.996 9.20848V10.7915H17.9923Z" fill="#B4B3BB" stroke="#B4B3BB" stroke-width="0.5"/>
<path d="M10.0015 6.11304C7.85815 6.11304 6.11719 7.854 6.11719 9.99731C6.11719 12.1406 7.85815 13.8816 10.0015 13.8816C12.1448 13.8816 13.8857 12.1406 13.8857 9.99731C13.8857 7.854 12.1448 6.11304 10.0015 6.11304ZM10.0015 12.8663C8.41842 12.8663 7.13244 11.5803 7.13244 9.99731C7.13244 8.41427 8.41842 7.12829 10.0015 7.12829C11.5845 7.12829 12.8705 8.41427 12.8705 9.99731C12.8705 11.5803 11.5845 12.8663 10.0015 12.8663Z" fill="#B4B3BB" stroke="#B4B3BB" stroke-width="0.5"/>
</svg>
